<?xml version="1.0" encoding="utf-8"?>
<!-- Generator: Adobe Illustrator 14.0.0, SVG Export Plug-In . SVG Version: 6.00 Build 43363)  -->
<!DOCTYPE svg PUBLIC "-//W3C//DTD SVG 1.1//EN" "http://www.w3.org/Graphics/SVG/1.1/DTD/svg11.dtd">
<svg version="1.1" id="Layer_1" xmlns="http://www.w3.org/2000/svg" xmlns:xlink="http://www.w3.org/1999/xlink" x="0px" y="0px"
	 width="288.632px" height="47.879px" viewBox="0 0 288.632 47.879" enable-background="new 0 0 288.632 47.879"
	 xml:space="preserve">
<g>
	<path fill="#BE1E2D" d="M125.599,8.105c-2.441-0.462-5.091-0.495-7.757-0.143c-2.315-0.687-4.656-1.068-6.895-1.068
		c-11.098,0-15.431,9.176-15.431,20.49c0,11.318,8.993,20.495,20.09,20.495c0.293,0,0.577-0.008,0.866-0.021
		c9.86,0.452,18.79-6.557,20.638-16.735C139.136,19.993,136.51,10.168,125.599,8.105"/>
	<path fill="#FFFFFF" d="M52.241,39.366c-3.488,0-6.333-1.133-8.53-3.405c-2.203-2.273-3.297-5.236-3.297-8.885
		c0-3.852,1.113-6.97,3.347-9.35c2.233-2.38,5.192-3.569,8.873-3.569c3.479,0,6.293,1.14,8.442,3.415
		c2.146,2.28,3.219,5.282,3.219,9.013c0,3.828-1.113,6.913-3.34,9.263C58.729,38.194,55.823,39.366,52.241,39.366 M52.483,18.88
		c-1.928,0-3.458,0.726-4.592,2.167c-1.134,1.448-1.7,3.356-1.7,5.738c0,2.414,0.566,4.327,1.7,5.73
		c1.134,1.407,2.617,2.106,4.457,2.106c1.891,0,3.391-0.683,4.504-2.05c1.11-1.363,1.664-3.258,1.664-5.683
		c0-2.527-0.538-4.494-1.615-5.899C55.823,19.586,54.352,18.88,52.483,18.88"/>
	<path fill="#FFFFFF" d="M72.106,38.941h6.309l3.79-6.271c0.28-0.479,0.556-0.905,0.814-1.277c0.26-0.376,0.53-0.696,0.79-0.961
		c0.269-0.263,0.547-0.467,0.835-0.61c0.291-0.144,0.604-0.213,0.945-0.213h1.476v9.332h5.49V14.564h-8.699
		c-5.918,0-8.875,2.21-8.875,6.63c0,0.847,0.129,1.635,0.391,2.354c0.258,0.72,0.628,1.369,1.103,1.948
		c0.476,0.577,1.054,1.074,1.725,1.497c0.673,0.42,1.424,0.746,2.253,0.987v0.066c-0.363,0.113-0.714,0.296-1.054,0.552
		c-0.338,0.256-0.667,0.552-0.984,0.891c-0.317,0.341-0.621,0.705-0.909,1.096c-0.29,0.392-0.555,0.776-0.792,1.148L72.106,38.941z
		 M87.065,18.677v6.782h-2.376c-1.181,0-2.13-0.338-2.84-1.015c-0.724-0.692-1.089-1.551-1.089-2.57
		c0-2.131,1.275-3.197,3.823-3.197H87.065z"/>
	<path fill="#FFFFFF" d="M127.923,38.941h-6.311l-3.79-6.271c-0.28-0.479-0.552-0.905-0.812-1.277
		c-0.264-0.376-0.528-0.696-0.793-0.961c-0.268-0.263-0.546-0.467-0.83-0.61c-0.293-0.144-0.606-0.213-0.946-0.213h-1.479v9.332
		h-5.489V14.564h8.704c5.916,0,8.869,2.21,8.869,6.63c0,0.847-0.127,1.635-0.391,2.354c-0.258,0.72-0.626,1.369-1.101,1.948
		c-0.477,0.577-1.056,1.074-1.725,1.497c-0.678,0.42-1.429,0.746-2.251,0.987v0.066c0.36,0.113,0.71,0.296,1.052,0.552
		c0.337,0.256,0.665,0.552,0.982,0.891c0.319,0.341,0.621,0.705,0.909,1.096c0.294,0.392,0.556,0.776,0.795,1.148L127.923,38.941z
		 M112.962,18.677v6.782h2.38c1.181,0,2.122-0.338,2.836-1.015c0.726-0.692,1.091-1.551,1.091-2.57c0-2.131-1.275-3.197-3.825-3.197
		H112.962z"/>
	<path fill="#FFFFFF" d="M137.5,38.941l6.444-24.377h6.09l4.046,15.641c0.211,0.813,0.343,1.727,0.386,2.735h0.071
		c0.101-1.108,0.249-2.021,0.444-2.735l4.144-15.641h6.345l6.405,24.377h-6l-3.433-16.232c-0.149-0.692-0.255-1.625-0.326-2.792
		h-0.099c-0.048,0.876-0.211,1.826-0.493,2.857l-4.423,16.167h-5.877l-3.999-16.372c-0.146-0.602-0.276-1.473-0.389-2.615h-0.069
		c-0.046,0.896-0.162,1.801-0.357,2.718l-3.365,16.269H137.5z"/>
	<path fill="#FFFFFF" d="M0,38.941l6.444-24.377h6.084l4.048,15.641c0.214,0.813,0.345,1.727,0.39,2.735h0.068
		c0.102-1.108,0.25-2.021,0.446-2.735l4.143-15.641h6.342l6.408,24.377h-6.002l-3.432-16.232c-0.143-0.692-0.253-1.625-0.321-2.792
		h-0.102c-0.048,0.876-0.213,1.826-0.492,2.857l-4.423,16.167h-5.882L9.723,22.569c-0.146-0.602-0.279-1.473-0.39-2.615H9.266
		c-0.045,0.896-0.165,1.801-0.356,2.718L5.543,38.941H0z"/>
	<path fill="#FFFFFF" d="M202.817,38.941h-5.984l-1.729-5.423h-8.671l-1.715,5.423h-5.949l8.871-24.376h6.512L202.817,38.941z
		 M193.84,29.302l-2.613-8.194c-0.193-0.612-0.328-1.343-0.41-2.192h-0.134c-0.06,0.713-0.199,1.423-0.424,2.126l-2.654,8.26H193.84
		z"/>
	<path fill="#FFFFFF" d="M216.69,30.542v8.399h-5.489V14.564h8.601c6.143,0,9.215,2.591,9.215,7.768c0,2.447-0.878,4.429-2.639,5.94
		c-1.763,1.515-4.125,2.27-7.067,2.27H216.69z M216.69,18.78v7.601h2.164c2.92,0,4.382-1.282,4.382-3.844
		c0-2.505-1.462-3.757-4.382-3.757H216.69z"/>
	<path fill="#FFFFFF" d="M258.197,38.941h-6.939l-7.107-10.589c-0.14-0.209-0.352-0.652-0.648-1.347h-0.086v11.936h-5.49V14.564
		h5.49V26.09h0.086c0.138-0.318,0.366-0.772,0.682-1.359l6.734-10.167h6.542l-8.5,11.624L258.197,38.941z"/>
	<path fill="#FFFFFF" d="M288.632,38.941h-5.987l-1.732-5.423h-8.665l-1.719,5.423h-5.952l8.873-24.376h6.515L288.632,38.941z
		 M279.659,29.302l-2.619-8.194c-0.195-0.612-0.331-1.343-0.408-2.192h-0.135c-0.058,0.713-0.2,1.423-0.43,2.126l-2.648,8.26
		H279.659z"/>
	<path fill="#006838" d="M127.982,6.894c-3.831-1.617-6.792-1.243-8.374-0.796c0.355-1.254,1.106-3.013,2.73-4.766L121.107,0
		c-2.11,2.273-2.966,4.59-3.313,6.123c-0.449-0.242-1.28-0.563-2.818-0.903c-3.301-0.732-10.144,0.941-10.144,0.941
		c5.968,0.786,7.96,2.198,9.319,2.722c-3.641,0.942-6.602,5.234-4.271,3.508c2.329-1.727,7.279-3.193,8.251-2.566
		c0.97,0.63,2.425,8.32,2.425,8.32s0.242,0.16,0.534-2.196c0.295-2.355-0.483-6.333-0.483-6.333s1.942,0.47,5.29,2.093
		c3.35,1.622,5.435,3.77,5.435,3.77l-1.792-3.138c-1.797-3.143-6.168-4.293-6.168-4.293c5.339-0.524,9.808,1.725,9.808,1.725
		S133.806,9.353,127.982,6.894"/>
</g>
</svg>
