<svg xmlns="http://www.w3.org/2000/svg" width="288.632" height="47.879" viewBox="0 0 288.632 47.879"><path fill="#BE1E2D" d="M125.6 8.105c-2.442-.462-5.092-.495-7.758-.143-2.315-.687-4.656-1.068-6.895-1.068-11.098 0-15.43 9.176-15.43 20.49 0 11.318 8.992 20.495 20.09 20.495.292 0 .576-.01.865-.022 9.86.452 18.79-6.557 20.638-16.735 2.026-11.13-.6-20.955-11.51-23.018"/><path fill="#FFF" d="M52.24 39.366c-3.487 0-6.332-1.133-8.53-3.405-2.202-2.272-3.296-5.235-3.296-8.884 0-3.852 1.113-6.97 3.347-9.35s5.193-3.57 8.874-3.57c3.48 0 6.293 1.14 8.442 3.416 2.146 2.28 3.22 5.282 3.22 9.013 0 3.828-1.114 6.913-3.34 9.263-2.227 2.346-5.133 3.518-8.715 3.518m.243-20.486c-1.928 0-3.458.726-4.592 2.167-1.133 1.448-1.7 3.356-1.7 5.738 0 2.414.567 4.327 1.7 5.73 1.135 1.407 2.618 2.106 4.458 2.106 1.89 0 3.39-.682 4.504-2.05 1.11-1.362 1.664-3.257 1.664-5.682 0-2.527-.538-4.494-1.615-5.9-1.077-1.402-2.548-2.108-4.417-2.108M72.106 38.94h6.31l3.79-6.27c.28-.48.555-.905.813-1.277.26-.376.53-.696.79-.96.268-.264.546-.468.834-.61.29-.145.604-.214.945-.214h1.475v9.33h5.49V14.565h-8.7c-5.917 0-8.874 2.21-8.874 6.63 0 .847.13 1.635.392 2.354.258.72.628 1.37 1.103 1.948a7.167 7.167 0 0 0 1.725 1.497 8.94 8.94 0 0 0 2.253.987v.066a3.458 3.458 0 0 0-1.054.552 7.778 7.778 0 0 0-.985.89c-.317.342-.62.706-.91 1.097-.29.392-.554.776-.79 1.148l-4.61 7.208zm14.96-20.263v6.782h-2.377c-1.182 0-2.13-.34-2.84-1.016-.725-.692-1.09-1.55-1.09-2.57 0-2.13 1.275-3.197 3.823-3.197h2.482zM127.923 38.94h-6.31l-3.79-6.27c-.28-.48-.553-.905-.813-1.277a7.24 7.24 0 0 0-.793-.96 3.345 3.345 0 0 0-.83-.61 2.106 2.106 0 0 0-.946-.214h-1.478v9.33h-5.49V14.565h8.705c5.916 0 8.87 2.21 8.87 6.63 0 .847-.128 1.635-.392 2.354a6.51 6.51 0 0 1-1.1 1.948 7.225 7.225 0 0 1-1.726 1.497 9.12 9.12 0 0 1-2.252.987v.066c.36.113.71.296 1.052.552.337.256.665.552.982.89.32.342.62.706.91 1.097.293.392.555.776.794 1.148l4.607 7.208zm-14.96-20.263v6.782h2.38c1.18 0 2.12-.34 2.835-1.016.726-.692 1.09-1.55 1.09-2.57 0-2.13-1.274-3.197-3.824-3.197h-2.482zM137.5 38.94l6.444-24.376h6.09l4.046 15.64c.21.814.343 1.728.386 2.736h.07c.102-1.108.25-2.02.445-2.735l4.145-15.64h6.345l6.405 24.376h-6l-3.433-16.23c-.15-.693-.255-1.626-.326-2.793h-.1c-.047.876-.21 1.826-.492 2.857L157.1 38.94h-5.876l-4-16.37c-.145-.603-.275-1.474-.388-2.616h-.07a17.3 17.3 0 0 1-.356 2.718l-3.365 16.27H137.5zM0 38.94l6.444-24.376h6.084l4.048 15.64c.214.814.345 1.728.39 2.736h.068c.102-1.108.25-2.02.446-2.735l4.143-15.64h6.342l6.408 24.376H28.37l-3.43-16.23c-.144-.693-.254-1.626-.322-2.793h-.102c-.048.876-.213 1.826-.492 2.857L19.6 38.94h-5.88L9.722 22.57c-.146-.603-.28-1.474-.39-2.616h-.067a17.66 17.66 0 0 1-.356 2.718l-3.367 16.27H0zM202.817 38.94h-5.984l-1.73-5.422h-8.67l-1.715 5.423h-5.95l8.872-24.375h6.512l8.665 24.376zm-8.977-9.638l-2.613-8.194c-.193-.612-.328-1.343-.41-2.192h-.134c-.06.713-.2 1.423-.424 2.126l-2.655 8.26h6.235zM216.69 30.542v8.4h-5.49V14.563h8.602c6.143 0 9.215 2.59 9.215 7.768 0 2.447-.878 4.43-2.64 5.94-1.762 1.515-4.124 2.27-7.066 2.27h-2.62zm0-11.762v7.6h2.164c2.92 0 4.382-1.28 4.382-3.843 0-2.505-1.462-3.757-4.382-3.757h-2.164zM258.197 38.94h-6.94l-7.106-10.588c-.14-.21-.35-.652-.647-1.347h-.086V38.94h-5.49V14.565h5.49V26.09h.086c.138-.318.366-.772.682-1.36l6.734-10.166h6.54l-8.5 11.624 9.237 12.753zM288.632 38.94h-5.987l-1.732-5.422h-8.665l-1.72 5.423h-5.95l8.872-24.375h6.515l8.667 24.376zm-8.973-9.638l-2.62-8.194c-.195-.612-.33-1.343-.408-2.192h-.135a9.226 9.226 0 0 1-.43 2.126l-2.648 8.26h6.24z"/><path fill="#006838" d="M127.982 6.894c-3.83-1.617-6.792-1.243-8.374-.796.355-1.254 1.106-3.013 2.73-4.766L121.108 0c-2.11 2.273-2.967 4.59-3.314 6.123-.45-.242-1.28-.563-2.818-.903-3.3-.732-10.144.94-10.144.94 5.968.787 7.96 2.2 9.32 2.723-3.642.942-6.603 5.234-4.272 3.508 2.33-1.726 7.28-3.192 8.25-2.565.97.63 2.426 8.32 2.426 8.32s.242.16.534-2.196c.295-2.356-.483-6.334-.483-6.334s1.942.47 5.29 2.093c3.35 1.62 5.435 3.77 5.435 3.77l-1.792-3.14c-1.797-3.142-6.168-4.292-6.168-4.292 5.34-.524 9.808 1.725 9.808 1.725s.626-.42-5.198-2.88"/></svg>