<svg xmlns="http://www.w3.org/2000/svg" width="300" height="300" viewBox="0 0 300 300"><path fill="none" stroke="#FFF" stroke-width="7.134" stroke-miterlimit="10" d="M57.522 114.666h139.454c47.447-2.814 62.587 28.403 64.048 77.04 3.613 88.568-66.8 96.326-119.942 96.326-44.855 0-73.664-13.12-100.058-44.123-51.135-70.12 1.144-198 8.7-193.897L192.036 198.54"/><path fill="none" stroke="#619BD3" stroke-width="7.134" stroke-miterlimit="10" d="M78.587 152.267h139.45"/><path fill="none" stroke="#ECEFAA" stroke-width="7.134" stroke-miterlimit="10" d="M233.022 189.55H93.568c-96.464 0-63.496-118.218-44.46-136.428 45.81-73.6 217.24-50.267 230.56 60.9 7.295 61.327-12.72 123.055-51.09 152.72-58.678 45.375-163.208 10.87-168.284-4.812l126.778-155.987"/></svg>